<?xml version="1.0" encoding="UTF-8"?>
<svg width="26px" height="26px" viewBox="0 0 26 26" version="1.1" xmlns="http://www.w3.org/2000/svg" xmlns:xlink="http://www.w3.org/1999/xlink">
    <!-- Generator: Sketch 52.6 (67491) - http://www.bohemiancoding.com/sketch -->
    <title>iconfinder_Untitled-1-11_3773954 (1)</title>
    <desc>Created with Sketch.</desc>
    <g id="Page-1" stroke="none" stroke-width="1" fill="none" fill-rule="evenodd">
        <g id="iconfinder_Untitled-1-11_3773954-(1)" fill="#D0011B" fill-rule="nonzero">
            <path d="M23.14505,0 L2.855011,0 C1.7450256,0 0.8450012,0.8999634 0.8450012,2.0100098 L0.8450012,21.9099732 C0.8450012,23.0100098 1.7450256,23.9099732 2.855011,23.9099732 L3.9049988,23.9099732 L3.9049988,25 C3.9049988,25.5599976 4.3450012,26 4.9049988,26 C5.4550476,26 5.9049988,25.5599976 5.9049988,25 L5.9049988,23.9099731 L19.8250427,23.9099731 L19.8250427,25 C19.8250427,25.5599976 20.2750549,26 20.8250427,26 C21.3750305,26 21.8250427,25.5599976 21.8250427,25 L21.8250427,23.9099731 L23.14505,23.9099731 C24.2550354,23.9099731 25.1549987,23.0100097 25.1549987,21.9099731 L25.1549987,2.0100098 C25.1549988,0.8999634 24.2550354,0 23.14505,0 Z M16.7550354,14.2999878 L17.815033,15.3599854 C18.2150574,15.75 18.2150574,16.3899537 17.815033,16.7799683 C17.6250306,16.9699707 17.3650208,17.0700074 17.1150208,17.0700074 C16.855011,17.0700074 16.605011,16.9699708 16.4049988,16.7799683 L15.3350525,15.709961 C14.6250305,16.1499634 13.8050232,16.3800049 12.9950256,16.3800049 C12.185028,16.3800049 11.3750305,16.1599732 10.6650085,15.709961 L9.5950012,16.7799683 C9.4049988,16.9699707 9.14505,17.0700074 8.8850403,17.0700074 C8.6350403,17.0700074 8.3750305,16.9699708 8.1850281,16.7799683 C7.7950135,16.3899537 7.7950135,15.75 8.1850281,15.3599854 L9.2450257,14.2999878 C8.3550111,12.8699951 8.3550111,11.039978 9.2450257,9.6199951 L8.1850281,8.5499878 C7.7950135,8.1599732 7.7950135,7.5299683 8.1850281,7.1399536 C8.5750427,6.75 9.2050476,6.75 9.5950012,7.1399536 L10.6549988,8.2000122 C11.3450012,7.7600098 12.1549988,7.5299683 12.9950257,7.5299683 C13.8450013,7.5299683 14.6549988,7.7600098 15.3450013,8.2000122 L16.4049989,7.1399536 C16.7950135,6.75 17.4250184,6.75 17.8150331,7.1399536 C18.2150575,7.5299682 18.2150575,8.1599731 17.8150331,8.5499878 L16.7550355,9.6199951 C17.64505,11.0499878 17.64505,12.8800049 16.7550354,14.2999878 Z" id="Shape"></path>
        </g>
    </g>
</svg>