<?xml version="1.0" standalone="no"?>
<!DOCTYPE svg PUBLIC "-//W3C//DTD SVG 20010904//EN"
 "http://www.w3.org/TR/2001/REC-SVG-20010904/DTD/svg10.dtd">
<svg version="1.0" xmlns="http://www.w3.org/2000/svg"
 width="700.000000pt" height="700.000000pt" viewBox="0 0 700.000000 700.000000"
 preserveAspectRatio="xMidYMid meet">
<metadata>
Created by potrace 1.11, written by Peter Selinger 2001-2013
</metadata>
<g transform="translate(0.000000,700.000000) scale(0.100000,-0.100000)"
fill="#000000" stroke="none">
<path d="M640 6984 c-143 -37 -280 -145 -347 -270 -70 -131 -65 96 -65 -2939
0 -2152 3 -2751 13 -2790 47 -188 177 -330 358 -392 70 -24 91 -26 259 -29
101 -1 185 -4 187 -6 2 -1 5 -82 7 -178 3 -150 7 -181 24 -220 25 -55 72 -103
128 -132 58 -31 175 -31 231 -1 57 30 99 71 126 123 22 42 24 58 27 228 3 130
7 182 15 183 16 1 3720 1 3728 0 3 -1 6 -74 6 -163 1 -181 9 -226 53 -286 53
-74 133 -112 227 -108 122 5 222 87 251 206 4 19 8 104 7 188 0 85 4 156 9
159 5 3 104 7 220 9 116 1 226 5 245 8 73 12 195 82 263 151 68 68 131 176
143 245 3 19 8 44 11 54 4 10 6 1251 6 2757 0 2112 -3 2751 -12 2791 -47 203
-209 366 -410 413 -96 22 -5625 21 -5710 -1z m1866 -1853 c26 -12 100 -77 203
-179 l163 -161 36 24 c78 51 266 120 387 142 17 3 100 7 185 9 223 4 375 -29
559 -123 l94 -49 160 159 c166 166 203 191 287 200 190 19 342 -170 281 -349
-20 -59 -18 -57 -203 -245 l-146 -150 39 -73 c96 -180 134 -338 134 -551 0
-225 -36 -374 -134 -561 l-39 -75 157 -157 c167 -168 197 -212 204 -296 15
-178 -146 -321 -320 -284 -72 16 -114 48 -275 209 l-148 148 -67 -35 c-110
-59 -249 -108 -338 -120 -22 -3 -55 -9 -74 -14 -35 -9 -295 -6 -346 4 -16 4
-43 9 -60 12 -69 14 -216 68 -292 109 l-82 43 -156 -154 c-86 -85 -171 -164
-190 -174 -107 -60 -262 -32 -335 60 -45 56 -62 105 -61 176 1 100 24 136 202
316 l157 158 -43 83 c-178 336 -178 753 -1 1094 l44 84 -156 157 c-176 179
-203 221 -203 322 -1 47 6 75 26 115 24 50 89 115 114 115 6 0 11 4 11 9 0 13
88 28 140 24 24 -2 63 -12 86 -22z"/>
</g>
</svg>
